<svg height="512pt" viewBox="0 0 512 512" width="512pt" xmlns="http://www.w3.org/2000/svg"><path d="m461 408.332031c-4.144531 0-7.5 3.359375-7.5 7.5v24.085938c0 6.894531-5.605469 12.5-12.5 12.5h-370c-6.894531 0-12.5-5.605469-12.5-12.5v-183.917969c0-4.140625-3.359375-7.5-7.5-7.5s-7.5 3.359375-7.5 7.5v228.5c0 15.164062 12.335938 27.5 27.5 27.5h370c15.164062 0 27.5-12.335938 27.5-27.5v-68.667969c0-4.140625-3.355469-7.5-7.5-7.5zm-7.5 76.167969c0 6.894531-5.605469 12.5-12.5 12.5h-370c-6.894531 0-12.5-5.605469-12.5-12.5v-20.089844c3.753906 1.925782 8.003906 3.011719 12.5 3.011719h370c4.496094 0 8.746094-1.085937 12.5-3.011719zm0 0"/><path d="m490.5 120h-75v-112.5c0-4.140625-3.355469-7.5-7.5-7.5h-24c-4.144531 0-7.5 3.359375-7.5 7.5s3.355469 7.5 7.5 7.5h16.5v165h-289v-165h242.167969c4.140625 0 7.5-3.359375 7.5-7.5s-3.359375-7.5-7.5-7.5h-249.667969c-4.140625 0-7.5 3.359375-7.5 7.5v112.5h-75c-11.855469 0-21.5 9.644531-21.5 21.5v32c0 11.855469 9.644531 21.5 21.5 21.5h25.019531c-1.925781 3.753906-3.019531 8-3.019531 12.5v16.5c0 4.140625 3.359375 7.5 7.5 7.5s7.5-3.359375 7.5-7.5v-16.5c0-6.894531 5.605469-12.5 12.5-12.5h77.988281c1.738281 13.730469 8.160157 26.011719 17.628907 35.191406.230468.253906.480468.488282.738281.703125 10.644531 9.976563 24.9375 16.105469 40.644531 16.105469h96c15.707031 0 30-6.128906 40.644531-16.101562.261719-.222657.511719-.457032.75-.714844 9.460938-9.179688 15.882813-21.457032 17.617188-35.183594h77.988281c6.894531 0 12.5 5.605469 12.5 12.5v176.332031c0 4.144531 3.355469 7.5 7.5 7.5s7.5-3.355469 7.5-7.5v-176.332031c0-4.5-1.09375-8.746094-3.019531-12.5h25.019531c11.855469 0 21.5-9.644531 21.5-21.5v-32c0-11.855469-9.644531-21.5-21.5-21.5zm-186.5 112h-1.265625l-14.9375-37h7.015625l33.386719 29.828125c-6.96875 4.535156-15.28125 7.171875-24.199219 7.171875zm-96 0c-8.917969 0-17.226562-2.636719-24.199219-7.171875l33.386719-29.828125h7.015625l-14.9375 37zm32.378906-37h8.121094v37h-23.058594zm23.121094 0h8.121094l14.9375 37h-23.058594zm-242-15c-3.585938 0-6.5-2.914062-6.5-6.5v-32c0-3.585938 2.914062-6.5 6.5-6.5h75v13h-40.5c-4.140625 0-7.5 3.359375-7.5 7.5s3.359375 7.5 7.5 7.5h40.5v17zm173.175781 15-21.941406 19.605469c-4.335937-5.628907-7.359375-12.316407-8.601563-19.605469zm144.589844 19.605469-21.941406-19.605469h30.542969c-1.242188 7.289062-4.265626 13.976562-8.601563 19.605469zm157.734375-41.105469c0 3.585938-2.914062 6.5-6.5 6.5h-75v-17h40.5c4.144531 0 7.5-3.359375 7.5-7.5s-3.355469-7.5-7.5-7.5h-40.5v-13h75c3.585938 0 6.5 2.914062 6.5 6.5zm0 0"/><path d="m106 311.5c12.40625 0 22.5-10.09375 22.5-22.5s-10.09375-22.5-22.5-22.5-22.5 10.09375-22.5 22.5 10.09375 22.5 22.5 22.5zm0-30c4.136719 0 7.5 3.363281 7.5 7.5s-3.363281 7.5-7.5 7.5-7.5-3.363281-7.5-7.5 3.363281-7.5 7.5-7.5zm0 0"/><path d="m166 311.5c12.40625 0 22.5-10.09375 22.5-22.5s-10.09375-22.5-22.5-22.5-22.5 10.09375-22.5 22.5 10.09375 22.5 22.5 22.5zm0-30c4.136719 0 7.5 3.363281 7.5 7.5s-3.363281 7.5-7.5 7.5-7.5-3.363281-7.5-7.5 3.363281-7.5 7.5-7.5zm0 0"/><path d="m226 311.5c12.40625 0 22.5-10.09375 22.5-22.5s-10.09375-22.5-22.5-22.5-22.5 10.09375-22.5 22.5 10.09375 22.5 22.5 22.5zm0-30c4.136719 0 7.5 3.363281 7.5 7.5s-3.363281 7.5-7.5 7.5-7.5-3.363281-7.5-7.5 3.363281-7.5 7.5-7.5zm0 0"/><path d="m286 311.5c12.40625 0 22.5-10.09375 22.5-22.5s-10.09375-22.5-22.5-22.5-22.5 10.09375-22.5 22.5 10.09375 22.5 22.5 22.5zm0-30c4.136719 0 7.5 3.363281 7.5 7.5s-3.363281 7.5-7.5 7.5-7.5-3.363281-7.5-7.5 3.363281-7.5 7.5-7.5zm0 0"/><path d="m346 311.5c12.40625 0 22.5-10.09375 22.5-22.5s-10.09375-22.5-22.5-22.5-22.5 10.09375-22.5 22.5 10.09375 22.5 22.5 22.5zm0-30c4.136719 0 7.5 3.363281 7.5 7.5s-3.363281 7.5-7.5 7.5-7.5-3.363281-7.5-7.5 3.363281-7.5 7.5-7.5zm0 0"/><path d="m406 311.5c12.40625 0 22.5-10.09375 22.5-22.5s-10.09375-22.5-22.5-22.5-22.5 10.09375-22.5 22.5 10.09375 22.5 22.5 22.5zm0-30c4.136719 0 7.5 3.363281 7.5 7.5s-3.363281 7.5-7.5 7.5-7.5-3.363281-7.5-7.5 3.363281-7.5 7.5-7.5zm0 0"/><path d="m106 371.5c12.40625 0 22.5-10.09375 22.5-22.5s-10.09375-22.5-22.5-22.5-22.5 10.09375-22.5 22.5 10.09375 22.5 22.5 22.5zm0-30c4.136719 0 7.5 3.363281 7.5 7.5s-3.363281 7.5-7.5 7.5-7.5-3.363281-7.5-7.5 3.363281-7.5 7.5-7.5zm0 0"/><path d="m166 371.5c12.40625 0 22.5-10.09375 22.5-22.5s-10.09375-22.5-22.5-22.5-22.5 10.09375-22.5 22.5 10.09375 22.5 22.5 22.5zm0-30c4.136719 0 7.5 3.363281 7.5 7.5s-3.363281 7.5-7.5 7.5-7.5-3.363281-7.5-7.5 3.363281-7.5 7.5-7.5zm0 0"/><path d="m226 371.5c12.40625 0 22.5-10.09375 22.5-22.5s-10.09375-22.5-22.5-22.5-22.5 10.09375-22.5 22.5 10.09375 22.5 22.5 22.5zm0-30c4.136719 0 7.5 3.363281 7.5 7.5s-3.363281 7.5-7.5 7.5-7.5-3.363281-7.5-7.5 3.363281-7.5 7.5-7.5zm0 0"/><path d="m286 371.5c12.40625 0 22.5-10.09375 22.5-22.5s-10.09375-22.5-22.5-22.5-22.5 10.09375-22.5 22.5 10.09375 22.5 22.5 22.5zm0-30c4.136719 0 7.5 3.363281 7.5 7.5s-3.363281 7.5-7.5 7.5-7.5-3.363281-7.5-7.5 3.363281-7.5 7.5-7.5zm0 0"/><path d="m346 371.5c12.40625 0 22.5-10.09375 22.5-22.5s-10.09375-22.5-22.5-22.5-22.5 10.09375-22.5 22.5 10.09375 22.5 22.5 22.5zm0-30c4.136719 0 7.5 3.363281 7.5 7.5s-3.363281 7.5-7.5 7.5-7.5-3.363281-7.5-7.5 3.363281-7.5 7.5-7.5zm0 0"/><path d="m406 371.5c12.40625 0 22.5-10.09375 22.5-22.5s-10.09375-22.5-22.5-22.5-22.5 10.09375-22.5 22.5 10.09375 22.5 22.5 22.5zm0-30c4.136719 0 7.5 3.363281 7.5 7.5s-3.363281 7.5-7.5 7.5-7.5-3.363281-7.5-7.5 3.363281-7.5 7.5-7.5zm0 0"/><path d="m106 431.5c12.40625 0 22.5-10.09375 22.5-22.5s-10.09375-22.5-22.5-22.5-22.5 10.09375-22.5 22.5 10.09375 22.5 22.5 22.5zm0-30c4.136719 0 7.5 3.363281 7.5 7.5s-3.363281 7.5-7.5 7.5-7.5-3.363281-7.5-7.5 3.363281-7.5 7.5-7.5zm0 0"/><path d="m166 431.5c12.40625 0 22.5-10.09375 22.5-22.5s-10.09375-22.5-22.5-22.5-22.5 10.09375-22.5 22.5 10.09375 22.5 22.5 22.5zm0-30c4.136719 0 7.5 3.363281 7.5 7.5s-3.363281 7.5-7.5 7.5-7.5-3.363281-7.5-7.5 3.363281-7.5 7.5-7.5zm0 0"/><path d="m226 431.5c12.40625 0 22.5-10.09375 22.5-22.5s-10.09375-22.5-22.5-22.5-22.5 10.09375-22.5 22.5 10.09375 22.5 22.5 22.5zm0-30c4.136719 0 7.5 3.363281 7.5 7.5s-3.363281 7.5-7.5 7.5-7.5-3.363281-7.5-7.5 3.363281-7.5 7.5-7.5zm0 0"/><path d="m286 431.5c12.40625 0 22.5-10.09375 22.5-22.5s-10.09375-22.5-22.5-22.5-22.5 10.09375-22.5 22.5 10.09375 22.5 22.5 22.5zm0-30c4.136719 0 7.5 3.363281 7.5 7.5s-3.363281 7.5-7.5 7.5-7.5-3.363281-7.5-7.5 3.363281-7.5 7.5-7.5zm0 0"/><path d="m346 431.5c12.40625 0 22.5-10.09375 22.5-22.5s-10.09375-22.5-22.5-22.5-22.5 10.09375-22.5 22.5 10.09375 22.5 22.5 22.5zm0-30c4.136719 0 7.5 3.363281 7.5 7.5s-3.363281 7.5-7.5 7.5-7.5-3.363281-7.5-7.5 3.363281-7.5 7.5-7.5zm0 0"/><path d="m406 431.5c12.40625 0 22.5-10.09375 22.5-22.5s-10.09375-22.5-22.5-22.5-22.5 10.09375-22.5 22.5 10.09375 22.5 22.5 22.5zm0-30c4.136719 0 7.5 3.363281 7.5 7.5s-3.363281 7.5-7.5 7.5-7.5-3.363281-7.5-7.5 3.363281-7.5 7.5-7.5zm0 0"/><path d="m156 42.5c-4.140625 0-7.5 3.359375-7.5 7.5s3.359375 7.5 7.5 7.5h200c4.144531 0 7.5-3.359375 7.5-7.5s-3.355469-7.5-7.5-7.5zm0 0"/><path d="m356 75.832031h-200c-4.140625 0-7.5 3.359375-7.5 7.5 0 4.144531 3.359375 7.5 7.5 7.5h200c4.144531 0 7.5-3.355469 7.5-7.5 0-4.140625-3.355469-7.5-7.5-7.5zm0 0"/><path d="m356 109.167969h-200c-4.140625 0-7.5 3.355469-7.5 7.5 0 4.140625 3.359375 7.5 7.5 7.5h200c4.144531 0 7.5-3.359375 7.5-7.5 0-4.144531-3.355469-7.5-7.5-7.5zm0 0"/><path d="m356 142.5h-200c-4.140625 0-7.5 3.359375-7.5 7.5s3.359375 7.5 7.5 7.5h200c4.144531 0 7.5-3.359375 7.5-7.5s-3.355469-7.5-7.5-7.5zm0 0"/></svg>